<svg width="68" height="118" viewBox="0 0 68 118" fill="none" xmlns="http://www.w3.org/2000/svg">
<path d="M23.1173 64.2755C28.8872 64.2756 33.3609 65.4045 36.5314 67.6691H36.5304C39.7555 69.8863 41.3664 73.2127 41.3664 77.6388C41.3663 80.5792 40.7005 83.0159 39.3644 84.9445C38.0548 86.8347 36.1039 88.2307 33.5177 89.1378C36.3618 90.0005 38.7233 91.4914 40.5998 93.6144H40.6007C42.5169 95.7323 43.4718 98.6042 43.4718 102.223C43.4718 105.088 42.8433 107.554 41.5841 109.619L41.5832 109.62C40.3245 111.634 38.612 113.144 36.4474 114.151L36.4484 114.152C34.3392 115.156 32.1537 115.883 29.8937 116.335L29.8947 116.336C27.6853 116.788 25.3006 117.014 22.7414 117.014H0.0558167V64.2755H23.1173ZM11.3693 107.731H22.591C25.5428 107.731 27.8623 107.254 29.5548 106.309C31.2355 105.37 32.0832 103.614 32.0832 101.02C32.0831 98.7778 31.3425 97.1043 29.8683 95.9894C28.3912 94.8723 26.169 94.3098 23.1925 94.3097H11.3693V107.731ZM11.4445 85.5519H22.7414C24.9379 85.5518 26.7041 85.0528 28.0451 84.0597L28.2873 83.8595C29.4632 82.8319 30.0529 81.4119 30.0529 79.5929C30.0528 77.6019 29.3942 76.1167 28.0832 75.1271C26.7689 74.1352 24.7907 73.6349 22.1398 73.6349H11.4445V85.5519ZM11.4445 0.0558014V42.5333H37.2316V52.7941H0.0558167V0.0558014H11.4445ZM67.0529 10.8097L67.1076 10.8214C66.8123 12.2767 66.4272 13.5757 65.9513 14.7179L58.6886 33.5109H67.1086V42.9454H55.1115L51.216 52.7589L51.2023 52.7941H39.4279L39.4591 52.7169L60.9611 0.0899811L60.9757 0.0558014H67.1086V10.8214L67.0529 10.8097ZM67.1086 116.855L67.05 116.851C61.006 116.455 55.5631 114.908 50.7228 112.209L50.6945 112.193V101.307L50.7804 101.363C55.7365 104.638 61.1618 106.464 67.0568 106.843L67.1086 106.847V116.855ZM67.1086 93.7579L67.0343 93.7306C66.3049 93.4626 65.5562 93.1832 64.7892 92.8917L64.7873 92.8908C62.3302 91.8879 60.023 90.835 57.8664 89.7316L57.8654 89.7306C55.7519 88.5732 53.966 86.913 52.508 84.7511V84.7501C51.0979 82.5848 50.3937 80.0425 50.3937 77.1261C50.3938 72.2483 52.2304 68.5218 55.9054 65.9542C58.9725 63.8115 62.688 62.5647 67.049 62.213L67.1086 62.2081V72.4445L67.0627 72.4523C65.3678 72.7595 64.1043 73.2926 63.2648 74.046C62.4273 74.7977 62.008 75.7725 62.008 76.9757C62.008 78.3568 62.6967 79.5697 64.089 80.6144C64.9648 81.2486 65.9606 81.8103 67.0753 82.299L67.1086 82.3136V93.7579Z" fill="white" stroke="#0E0615" stroke-width="0.111472"/>
</svg>
